<?xml version="1.0" encoding="UTF-8"?>
<!-- Generator: Adobe Illustrator 16.0.0, SVG Export Plug-In . SVG Version: 6.00 Build 0)  -->
<!DOCTYPE svg PUBLIC "-//W3C//DTD SVG 1.1//EN" "http://www.w3.org/Graphics/SVG/1.1/DTD/svg11.dtd">
<svg version="1.1" id="Layer_1" xmlns="http://www.w3.org/2000/svg" xmlns:xlink="http://www.w3.org/1999/xlink" x="0px" y="0px" width="1000px" height="1000px" viewBox="0 0 1000 1000" enable-background="new 0 0 1000 1000" xml:space="preserve">
<g>
	<path fill="#2F363B" d="M1000,950c0,27.5-22.5,50-50,50H50c-27.5,0-50-22.5-50-50V50C0,22.5,22.5,0,50,0h900c27.5,0,50,22.5,50,50   V950z"/>
</g>
<path fill="none" stroke="#FFFFFF" stroke-width="3.8076" stroke-miterlimit="10" stroke-dasharray="38.0761" d="M879.34,80.867"/>
<path fill="none" stroke="#FFFFFF" stroke-width="3.8076" stroke-miterlimit="10" stroke-dasharray="38.0761" d="M879.34,80.867"/>
<g>
	<g>
		<path fill="#0084B9" d="M763.518,411.678c0,145.518-117.926,263.471-263.512,263.471c-145.527,0-263.523-117.953-263.523-263.471    c0-145.574,117.996-263.561,263.523-263.561C645.592,148.117,763.518,266.104,763.518,411.678"/>
		<path fill="#FFFFFF" d="M502.691,587.023c-67.545,0-120.422-49.695-120.422-113.094l0.242-158.422    c0-46.361,39.221-84.102,87.393-84.102c49.082,0,89.014,37.656,89.014,83.961l-0.041,157.711c0,27.611-23.553,50.098-52.52,50.098    c-29.588,0-54.621-22.941-54.621-50.133V363.191c0-10.268,8.322-18.602,18.586-18.602c10.254,0,18.576,8.334,18.576,18.602    v109.852c0,6.539,8.652,12.959,17.459,12.959c8.451,0,15.359-5.801,15.359-12.959l0.029-157.676    c0-25.367-23.75-46.801-51.842-46.801c-27.715,0-50.236,21.07-50.236,46.971l-0.254,158.428c0,43.256,35.807,75.926,83.277,75.926    c42.928,0,89.158-23.748,89.158-75.961V108.094c0-10.279,8.332-18.586,18.564-18.586c10.275,0,18.59,8.307,18.59,18.586V473.93    C629.004,548.191,565.453,587.023,502.691,587.023"/>
	</g>
	<g>
		<path fill="#FFFFFF" d="M288.66,769.623c-6.232,0-12.865,4.125-12.865,11.785v110.568c0,7.625,6.586,11.75,12.777,11.75    c6.277,0,12.631-4.041,12.631-11.75V781.164C301.203,773.588,294.889,769.623,288.66,769.623z"/>
		<path fill="#FFFFFF" d="M402.826,767.359c-18.027,0-33.264,6.143-43.189,17.156v-3.107c0-8.225-6.326-12.52-12.568-12.52    c-6.104,0-12.592,4.295-12.592,12.275v110.092c0,7.354,5.252,12.324,13.057,12.324c7.662,0,12.592-4.848,12.592-12.324v-57.018    c0-25.539,21.957-42.697,42.455-42.697c16.875,0,34.354,12.924,34.354,34.584v65.131c0,7.354,5.148,12.324,12.822,12.324    c7.65,0,12.584-4.848,12.584-12.324v-65.131C462.34,787.551,432.402,767.359,402.826,767.359z"/>
		<path fill="#FFFFFF" d="M572.564,770.174c-13.047-3.451-27.23-3.428-38.809,0.012c-20.791,5.826-36.695,21.086-43.686,41.867    c-7.721,22.982-3.502,49.121,11.049,68.236c11.604,14.576,31.342,23.291,52.76,23.291h1.285c18.172,0,34.166-5.605,45.17-15.887    c4.219-4.344,5.527-9.459,3.609-14.025c-1.812-4.283-6.316-7.184-11.236-7.184c-3.377,0-6.693,1.359-9.117,3.611    c-10.254,7.881-22.201,9.545-30.412,9.545c-19.494,0-35.572-11.906-40.344-29.383h92.432c5.529,0,9.752-1.555,12.529-4.602    c3.182-3.463,3.512-7.783,3.256-10.561C620.428,802.531,602.303,778.25,572.564,770.174z M595.902,827.803h-84.248    c2.598-17.318,13.426-29.971,29.557-34.205c6.4-1.885,14.93-2.215,21.855-0.834l2.461,0.625    C581.693,797.525,593.088,810.559,595.902,827.803z"/>
		<path fill="#FFFFFF" d="M702.064,769.072c-14.109,0-25.125,4.186-32.871,12.457v-0.121c0-16.215-24.916-15.701-24.926,0v108.83    c0,7.27,5.285,12.35,12.838,12.35c7.061,0,12.592-5.422,12.592-12.35v-55.521c0-26.178,11.795-41.205,32.367-41.205    c7.943,0,13.07-4.748,13.07-12.104C715.135,773.906,710.008,769.072,702.064,769.072z"/>
		<path fill="#FFFFFF" d="M810.861,769.941c-5.988-1.615-11.896-2.338-19.152-2.338c-7.836,0-14.283,0.771-19.691,2.338    c-27.4,7.746-45.414,30.559-48.182,61.189c-0.795,19.959,4.408,36.213,15.859,49.709c12.559,15.127,31.037,23.473,52.014,23.473    c20.973,0,39.441-8.346,52.012-23.473c11.379-13.707,16.629-30.447,15.602-49.855    C856.922,801.135,838.369,777.762,810.861,769.941z M791.709,880.119c-12.434,0-24.502-5.557-32.297-14.906    c-6.303-7.344-9.898-17.842-9.898-28.77c0-21.418,11.721-38.307,29.896-43.066c3.854-1.029,8.137-1.592,12.053-1.592    c3.902,0,8.492,0.588,12.58,1.604c18.295,4.723,30.117,21.834,30.117,43.555c0,10.01-3.805,20.865-9.889,28.244    C816.221,874.404,803.736,880.119,791.709,880.119z"/>
		<path fill="#FFFFFF" d="M288.721,698.043c-7.979,0-14.479,6.5-14.479,14.484c0,7.979,6.5,14.465,14.479,14.465    c7.977,0,14.479-6.486,14.479-14.465C303.199,704.543,296.697,698.043,288.721,698.043z"/>
		<path fill="#FFFFFF" d="M881.805,874.268c-8.008,0-14.488,6.5-14.488,14.49c0,7.98,6.48,14.465,14.488,14.465    c7.965,0,14.465-6.484,14.465-14.465C896.27,880.768,889.77,874.268,881.805,874.268z"/>
		<path fill="#FFFFFF" d="M244.836,710.074c0-7.57-6.318-11.535-12.543-11.535c-6.242,0-12.863,4.125-12.863,11.791v131.766    c-0.258,9.9-4.844,22.199-10.857,29.211c-8.441,9.264-21.525,15.004-34.143,15.004c-13.033,0-25.697-5.568-33.848-14.967    c-6.574-7.342-10.33-17.818-10.33-28.723c0-13.889,5.113-26.053,14.281-34.131c5.24-4.088,11.16-6.609,17.623-7.488    c10.486-1.494,20.691,0.732,28.477,5.959c2.252,1.836,4.932,2.814,7.76,2.814c5.004,0,9.25-3.354,11.064-8.027    c2.068-5.35,0.586-10.82-4.508-15.457c-13.35-9.975-27.912-13.449-44.752-10.781c-11.051,1.773-21.525,6.303-30.717,13.449    l-0.586,0.465c-0.529,0.416-1.041,0.82-1.473,1.199c-13.629,11.148-21.779,27.24-23.605,46.688    c-0.842,19.984,4.59,36.273,16.535,49.783c13.082,15.09,32.297,23.398,54.078,23.398c21.785,0,40.998-8.309,54.078-23.398    c11.883-13.742,16.791-30.215,16.289-49.918L244.836,710.074z"/>
	</g>
</g>
</svg>